<svg width="165" height="257" viewBox="0 0 165 257" fill="none" xmlns="http://www.w3.org/2000/svg">
<g clip-path="url(#clip0_5002_14257)">
<path d="M82.5 0C36.9371 0 0 36.9371 0 82.5C0 128.063 36.9371 165 82.5 165C128.063 165 165 128.063 165 82.5C165 36.9371 128.063 0 82.5 0ZM82.5 114.737C68.3844 114.737 56.9393 100.305 56.9393 82.5C56.9393 64.6953 68.3844 50.263 82.5 50.263C96.6156 50.263 108.061 64.6953 108.061 82.5C108.061 100.305 96.6156 114.737 82.5 114.737Z" fill="white"/>
<path d="M108.01 176.018C107.212 192.911 96.0953 206.301 82.4985 206.301C68.9017 206.301 57.7847 192.911 56.9874 176.018H0.0175781C1.05527 220.68 37.5842 256.56 82.4985 256.56C127.413 256.56 163.934 220.68 164.972 176.018H108.01Z" fill="white"/>
</g>
<defs>
<clipPath id="clip0_5002_14257">
<rect width="165" height="256.557" fill="white"/>
</clipPath>
</defs>
</svg>
