<?xml version="1.0" encoding="UTF-8"?>
<svg id="Layer_2" data-name="Layer 2" xmlns="http://www.w3.org/2000/svg" viewBox="0 0 828.5 459.13">
  <defs>
    <style>
      .cls-1 {
        fill: #fffcf7;
      }
    </style>
  </defs>
  <g id="Layer_1-2" data-name="Layer 1">
    <g>
      <g>
        <path class="cls-1" d="M120.96,87.31c63.1,0,124.75,45.75,124.75,130.04s-61.17,130.04-128.58,130.04c-40.46,0-76.59-16.37-99.23-44.3l20.23-20.71c18.3,19.75,45.28,30.33,74.66,30.33,48.16,0,88.15-27.93,94.41-80.42H1.02C-9.08,133.06,57.38,87.31,120.96,87.31ZM120.48,122.46c-41.89,0-80.93,27.45-83.81,79h170.5c-6.27-52.5-45.28-79-86.69-79Z"/>
        <path class="cls-1" d="M266.82.6h40.46v341.96h-40.46V.6Z"/>
        <path class="cls-1" d="M572.67,232.27h-206.15c6.27,52.5,46.23,80.43,94.41,80.43,29.38,0,56.36-10.6,74.66-30.34l20.23,20.71c-22.64,27.93-58.76,44.3-99.23,44.3-67.44,0-128.58-46.73-128.58-130.04s61.65-130.04,124.75-130.04,130.04,45.75,119.93,144.98h-.02ZM366.52,201.46h170.5c-2.88-51.54-41.89-79-83.81-79s-80.42,26.5-86.69,79Z"/>
        <path class="cls-1" d="M827.46,232.27h-206.15c6.27,52.5,46.23,80.43,94.41,80.43,29.38,0,56.36-10.6,74.66-30.34l20.23,20.71c-22.64,27.93-58.76,44.3-99.23,44.3-67.44,0-128.58-46.73-128.58-130.04s61.65-130.04,124.75-130.04,130.04,45.75,119.93,144.98h-.02ZM621.31,201.46h170.5c-2.88-51.54-41.89-79-83.81-79s-80.42,26.5-86.69,79Z"/>
        <path class="cls-1" d="M693.51,55.38V0h40.46l-20.23,55.38h-20.23Z"/>
      </g>
      <path class="cls-1" d="M28.8,426.86c7.03,1.68,11.66,7.11,11.66,15.26,0,9.43-6.23,16.22-19.25,16.22H2.52v-56.72h19.41c10.15,0,15.26,6.15,15.26,13.34,0,5.51-2.96,10.07-8.39,11.9ZM20.66,407.76h-11.26v17.1h11.1c6.55,0,10.07-3.68,10.07-8.87s-3.28-8.23-9.91-8.23ZM20.82,452.18c8.63,0,12.86-3.91,12.86-10.62s-4.23-11.26-12.94-11.26h-11.34v21.89h11.42ZM90.09,458.33v-24.44l-20.21-32.28h7.83l15.82,25.8,15.82-25.8h7.83l-20.21,32.28v24.44h-6.87ZM202.04,458.33v-56.72h7.67l21.97,47.85,22.05-47.85h7.67v56.72h-6.87v-43.06h-.4l-19.81,43.06h-5.19l-19.81-43.06h-.4v43.06h-6.87ZM301.2,458.33v-56.72h6.87v56.72h-6.87ZM375.99,459.13c-15.9,0-28.92-11.82-28.92-29.16s13.02-29.16,28.92-29.16c6.95,0,15.98,2.32,22.13,11.1l-5.03,3.68c-4.71-6.31-11.43-8.15-16.94-8.15-12.14,0-22.05,8.95-22.05,22.53s9.91,22.53,22.13,22.53c5.51,0,12.14-1.84,16.86-8.15l5.03,3.67c-6.15,8.79-15.1,11.1-22.13,11.1ZM471.26,401.61h6.87v56.72h-6.87v-24.76h-28.12v24.76h-6.87v-56.72h6.87v25.56h28.12v-25.56ZM517.88,458.33v-56.72h7.67l21.97,47.85,22.05-47.85h7.67v56.72h-6.87v-43.06h-.4l-19.81,43.06h-5.19l-19.81-43.06h-.4v43.06h-6.87ZM645.09,459.13c-15.42,0-28.84-11.74-28.84-29.16s13.42-29.16,28.84-29.16,28.76,11.74,28.76,29.16-13.42,29.16-28.76,29.16ZM645.09,452.5c11.42,0,21.73-8.79,21.73-22.53s-10.3-22.53-21.73-22.53-21.81,8.79-21.81,22.53,10.3,22.53,21.81,22.53ZM727.46,459.13c-9.59,0-17.1-5.67-19.01-13.82l5.67-2.64c1.6,5.91,6.55,10.07,13.34,10.07,5.99,0,11.18-3.28,11.18-9.75,0-5.83-4.15-8.39-10.78-11.02l-3.75-1.44c-8.31-3.35-13.34-7.99-13.34-15.34,0-8.79,7.11-14.38,16.3-14.38s14.86,5.67,17.1,11.82l-5.27,2.72c-2.24-5.11-5.91-8.23-11.66-8.23-5.43,0-9.59,3.04-9.59,8.15,0,3.99,2.4,7.11,9.11,9.75l3.83,1.52c9.27,3.68,15.1,7.83,15.1,16.54,0,10.47-8.71,16.06-18.22,16.06ZM818.47,401.61h6.87v56.72h-6.87v-24.76h-28.12v24.76h-6.87v-56.72h6.87v25.56h28.12v-25.56Z"/>
    </g>
  </g>
</svg>