<svg width="554" height="187" viewBox="0 0 554 187" fill="none" xmlns="http://www.w3.org/2000/svg">
<path fill-rule="evenodd" clip-rule="evenodd" d="M93.2595 8.00476C46.1747 8.00476 8.00488 46.1745 8.00488 93.2594C8.00488 140.344 46.1747 178.514 93.2595 178.514C140.344 178.514 178.514 140.344 178.514 93.2594C178.514 46.1745 140.344 8.00476 93.2595 8.00476ZM125.31 58.5049L126.167 54.1419L126.452 41.1415H114.969L115.349 54.1419L116.206 58.5049L112.312 56.3245L100.071 52.0543L96.5601 62.967L108.896 66.6679L113.363 67.1772L110.13 70.1789L102.254 80.5224L111.458 87.2598L118.86 76.5368L120.73 72.5243L122.561 76.5368L129.963 87.2598L139.262 80.5224L131.386 70.1789L128.147 67.1715L132.525 66.6679L145.051 62.967L141.54 52.0543L129.203 56.3245L125.31 58.5049ZM44.8284 136.087V110.47L140.89 114.78V136.087H44.8284ZM44.8284 55.2349V80.8513H76.0484L76.0484 59.545L44.8284 55.2349Z" fill="#F6F5F3"/>
<path d="M223.343 23.1316H249.1L244.766 161.437H223.343V23.1316Z" fill="#F6F5F3"/>
<path d="M270.971 23.1316H273.109C278.44 23.1316 282.745 27.4509 282.745 32.767C282.745 38.0976 278.425 42.4025 273.109 42.4025H270.971C265.641 42.4025 261.336 38.0831 261.336 32.767C261.336 27.4365 265.655 23.1316 270.971 23.1316ZM261.321 60.1421H287.078L278.411 161.437H261.321V60.1421Z" fill="#F6F5F3"/>
<path d="M294.431 110.789C294.431 76.6968 320.925 58.1915 347.419 58.1915C365.144 58.1915 380.067 66.5702 389.413 83.1252L374.881 93.064C369.044 83.7175 359.106 77.8669 347.607 77.8669C331.239 77.8669 315.667 89.9437 315.667 110.789C315.667 131.635 331.254 143.711 347.607 143.711C359.106 143.711 369.03 137.875 374.881 128.514L390.858 138.453C381.511 154.82 365.144 163.387 347.419 163.387C320.925 163.387 294.431 144.882 294.431 110.789Z" fill="#F6F5F3"/>
<path d="M411.978 23.1316H414.116C419.446 23.1316 423.751 27.4509 423.751 32.767C423.751 38.0976 419.432 42.4025 414.116 42.4025H411.978C406.647 42.4025 402.342 38.0831 402.342 32.767C402.342 27.4365 406.662 23.1316 411.978 23.1316ZM402.342 60.1421H428.099L419.432 161.437H402.342V60.1421Z" fill="#F6F5F3"/>
<path d="M545.949 23.1316L537.282 161.437H520.192V145.272H519.614C515.916 153.261 503.059 163.387 484.554 163.387C460.588 163.387 435.467 145.662 435.467 110.79C435.467 75.917 460.588 58.1919 484.554 58.1919C503.059 58.1919 515.916 68.3185 519.614 76.3071H520.004V23.1316H545.964H545.949ZM520.77 110.79C520.77 88.9762 504.995 77.6794 488.628 77.6794C472.261 77.6794 456.688 88.9762 456.688 110.79C456.688 132.603 472.463 143.9 488.628 143.9C504.793 143.9 520.77 132.603 520.77 110.79Z" fill="#F6F5F3"/>
</svg>
