<svg width="373" height="81" viewBox="0 0 373 81" fill="none" xmlns="http://www.w3.org/2000/svg">
<g clip-path="url(#clip0_160_506)">
<path d="M21.4269 0.000732422V61.0026C21.4269 68.1269 27.2019 73.9154 34.3397 73.9154C41.464 73.9154 47.2525 68.1404 47.2525 61.0026V48.9669C47.2525 40.5472 40.4251 33.7198 32.0054 33.7198H0" stroke="#F2EACF" stroke-width="13.493" stroke-miterlimit="10"/>
<path d="M16.8799 33.7185H48.8718C57.2914 33.7185 64.1189 26.8911 64.1189 18.4714C64.1189 12.1432 58.9916 7.01587 52.6633 7.01587H40.4926" stroke="#F2EACF" stroke-width="13.493" stroke-miterlimit="10"/>
</g>
<path d="M367.779 23.2162C368.681 23.2162 369.616 23.2484 370.583 23.3129C371.55 23.3773 372.355 23.5063 373 23.6996L371.84 35.0126C371.195 34.8836 370.422 34.7869 369.519 34.7225C368.681 34.5936 367.779 34.5291 366.812 34.5291C365.2 34.5291 363.621 34.8514 362.074 35.496C360.591 36.0762 359.205 36.9786 357.916 38.2034C356.691 39.3637 355.692 40.8785 354.919 42.7479C354.21 44.6173 353.855 46.8412 353.855 49.4196V76.5899H340.995V24.1831H350.858L352.598 33.2721H353.275C354.242 31.4027 355.434 29.7268 356.853 28.2442C358.335 26.6971 359.979 25.4723 361.784 24.5699C363.653 23.6674 365.651 23.2162 367.779 23.2162Z" fill="#F2EACF"/>
<path d="M315.787 23.2162C320.299 23.2162 324.166 24.1831 327.39 26.1169C330.677 27.9863 333.223 30.6937 335.028 34.239C336.833 37.7199 337.736 41.9744 337.736 47.0023V53.1906H305.634C305.763 57.9607 306.923 61.6672 309.115 64.3101C311.371 66.8885 314.53 68.1778 318.591 68.1778C321.749 68.1778 324.585 67.8555 327.099 67.2109C329.678 66.5018 332.321 65.5026 335.028 64.2134V73.9793C332.579 75.204 330.032 76.1065 327.39 76.6866C324.747 77.2668 321.491 77.5569 317.624 77.5569C312.725 77.5569 308.374 76.5899 304.57 74.6561C300.832 72.6578 297.899 69.6604 295.771 65.6638C293.644 61.6672 292.581 56.7037 292.581 50.7733C292.581 44.7784 293.547 39.7504 295.481 35.6894C297.415 31.5639 300.122 28.4698 303.603 26.407C307.149 24.2798 311.21 23.2162 315.787 23.2162ZM315.98 32.2085C313.144 32.2085 310.823 33.2721 309.018 35.3993C307.213 37.4621 306.15 40.5562 305.827 44.6817H325.552C325.552 42.2322 325.198 40.0728 324.489 38.2034C323.78 36.334 322.716 34.8836 321.298 33.8523C319.88 32.7564 318.107 32.2085 315.98 32.2085Z" fill="#F2EACF"/>
<path d="M260.923 38.01C260.923 39.686 260.858 41.4587 260.73 43.3281C260.601 45.133 260.439 46.9057 260.246 48.6461H260.633C260.955 47.8726 261.439 47.0346 262.083 46.1321C262.728 45.1652 263.405 44.2305 264.114 43.3281C264.887 42.3612 265.629 41.4909 266.338 40.7174L279.971 24.1831H294.475L275.427 46.809L295.635 76.59H280.841L266.628 54.1575L260.923 59.1855V76.59H248.16V3.10437H260.923V38.01Z" fill="#F2EACF"/>
<path d="M213.892 38.01C213.892 39.686 213.827 41.4587 213.698 43.3281C213.569 45.133 213.408 46.9057 213.215 48.6461H213.602C213.924 47.8726 214.407 47.0346 215.052 46.1321C215.697 45.1652 216.373 44.2305 217.083 43.3281C217.856 42.3612 218.597 41.4909 219.306 40.7174L232.94 24.1831H247.444L228.395 46.809L248.604 76.59H233.81L219.597 54.1575L213.892 59.1855V76.59H201.128V3.10437H213.892V38.01Z" fill="#F2EACF"/>
<path d="M175.92 23.2162C180.432 23.2162 184.3 24.1831 187.523 26.1169C190.81 27.9863 193.357 30.6937 195.161 34.239C196.966 37.7199 197.869 41.9744 197.869 47.0023V53.1906H165.767C165.896 57.9607 167.056 61.6672 169.248 64.3101C171.504 66.8885 174.663 68.1778 178.724 68.1778C181.882 68.1778 184.719 67.8555 187.233 67.2109C189.811 66.5018 192.454 65.5026 195.161 64.2134V73.9793C192.712 75.204 190.166 76.1065 187.523 76.6866C184.88 77.2668 181.625 77.5569 177.757 77.5569C172.858 77.5569 168.507 76.5899 164.704 74.6561C160.965 72.6578 158.032 69.6604 155.905 65.6638C153.777 61.6672 152.714 56.7037 152.714 50.7733C152.714 44.7784 153.681 39.7504 155.615 35.6894C157.548 31.5639 160.256 28.4698 163.737 26.407C167.282 24.2798 171.343 23.2162 175.92 23.2162ZM176.113 32.2085C173.277 32.2085 170.956 33.2721 169.151 35.3993C167.347 37.4621 166.283 40.5562 165.961 44.6817H185.686C185.686 42.2322 185.331 40.0728 184.622 38.2034C183.913 36.334 182.849 34.8836 181.431 33.8523C180.013 32.7564 178.24 32.2085 176.113 32.2085Z" fill="#F2EACF"/>
<path d="M151.224 23.2162C152.126 23.2162 153.061 23.2484 154.028 23.3129C154.994 23.3773 155.8 23.5063 156.445 23.6996L155.285 35.0126C154.64 34.8836 153.866 34.7869 152.964 34.7225C152.126 34.5936 151.224 34.5291 150.257 34.5291C148.645 34.5291 147.066 34.8514 145.519 35.496C144.036 36.0762 142.65 36.9786 141.361 38.2034C140.136 39.3637 139.137 40.8785 138.364 42.7479C137.654 44.6173 137.3 46.8412 137.3 49.4196V76.5899H124.44V24.1831H134.302L136.043 33.2721H136.72C137.687 31.4027 138.879 29.7268 140.297 28.2442C141.78 26.6971 143.424 25.4723 145.229 24.5699C147.098 23.6674 149.096 23.2162 151.224 23.2162Z" fill="#F2EACF"/>
<path d="M114.809 67.791C116.227 67.791 117.581 67.662 118.87 67.4042C120.224 67.0819 121.481 66.7274 122.641 66.3406V75.4296C121.288 76.0098 119.612 76.4932 117.613 76.88C115.68 77.3312 113.552 77.5568 111.232 77.5568C108.331 77.5568 105.688 77.0733 103.303 76.1064C100.982 75.0751 99.1453 73.3346 97.7916 70.8851C96.5024 68.4356 95.8577 65.0191 95.8577 60.6358V33.3688H89.2827V28.0507L96.6313 23.7963L100.499 12.6768H108.621V24.1831H122.158V33.3688H108.621V60.5391C108.621 62.9886 109.169 64.8258 110.265 66.0505C111.425 67.2108 112.94 67.791 114.809 67.791Z" fill="#F2EACF"/>
<defs>
<clipPath id="clip0_160_506">
<rect width="70.8653" height="80.6612" fill="white"/>
</clipPath>
</defs>
</svg>
