<?xml version="1.0" encoding="UTF-8"?>
<svg id="Layer_2" data-name="Layer 2" xmlns="http://www.w3.org/2000/svg" viewBox="0 0 1094.59 199.7">
  <defs>
    <style>
      .cls-1 {
        fill: #f2eae7;
      }
    </style>
  </defs>
  <g id="Layer_1-2" data-name="Layer 1">
    <g>
      <g>
        <path class="cls-1" d="M195.52,194.61c-1.55-.45-2.87-1.13-3.97-2.05-1.08-.91-1.64-2.01-1.64-3.28v-81.55c0-12.04-2.69-21.89-8.07-29.55-5.4-7.67-13.38-11.5-23.94-11.5-4.93,0-9.72,1.01-14.37,3.02-4.65,2.01-8.89,4.61-12.72,7.8-3.83,3.2-7.21,6.66-10.14,10.39-2.91,3.75-5.19,7.25-6.84,10.54h-.82c-1.28-9.66-4.59-17.37-9.96-23.11-5.37-5.75-12.41-8.64-21.13-8.64-4.91,0-9.59.97-14.03,2.88-4.46,1.92-8.59,4.28-12.41,7.12-3.82,2.82-7.18,6.02-10.09,9.57-2.91,3.55-5.28,6.99-7.09,10.25l-.55-.27v-29.56h-1.64L.27,79.55v2.18c2.19.92,4.38,1.96,6.57,3.15,2.18,1.19,4.1,2.23,5.75,3.15,1.26.91,2.05,1.74,2.32,2.45.27.74.42,1.83.42,3.28v93.59c0,2.93-1.52,5.02-4.52,6.3-3.02,1.28-6.61,2.1-10.81,2.47v2.73h53.09v-2.73c-1.83-.37-3.57-.59-5.2-.68-1.65-.09-3.15-.33-4.52-.68-1.37-.37-2.51-.97-3.42-1.78-.92-.82-1.56-2.14-1.92-3.97v-89.75c4.74-5.11,9.04-8.95,12.86-11.5,3.83-2.54,8.75-3.83,14.79-3.83,9.48,0,16.1,3.06,19.83,9.17,3.75,6.12,5.62,14.55,5.62,25.31v70.06c0,2.93-1.46,4.79-4.38,5.62-2.91.82-6.84,1.41-11.76,1.77v3.02h53.62v-2.47c-1.64-.18-3.33-.42-5.05-.68-1.74-.27-3.33-.64-4.79-1.1-1.47-.45-2.65-1.13-3.57-2.05-.91-.91-1.37-2.01-1.37-3.28v-88.39c4.4-4.92,8.62-8.98,12.65-12.17,4.04-3.2,9.08-4.8,15.13-4.8,9.54,0,16.19,3.15,19.95,9.45,3.76,6.29,5.65,14.73,5.65,25.31v69.78c0,2.93-1.28,4.79-3.83,5.62-2.56.82-6.3,1.41-11.22,1.77v3.02h53.64v-2.47c-1.65-.18-3.39-.42-5.2-.68-1.83-.27-3.52-.64-5.07-1.1Z"/>
        <path class="cls-1" d="M236.15,38.23c4.21,0,7.71-1.41,10.54-4.25,2.82-2.82,4.25-6.33,4.25-10.54s-1.43-7.65-4.25-10.39c-2.82-2.73-6.33-4.12-10.54-4.12s-7.7,1.38-10.52,4.12c-2.84,2.73-4.25,6.2-4.25,10.39s1.46,7.49,4.38,10.4c2.91,2.91,6.38,4.38,10.39,4.38Z"/>
        <path class="cls-1" d="M255.31,194.76c-1.64-.37-3.05-.97-4.24-1.78-1.19-.82-1.96-2.14-2.33-3.97v-122.33h-1.64l-36.95,12.05v1.63c2.56.92,4.98,1.92,7.25,3.02,2.27,1.08,4.25,2.18,5.89,3.28,1.28.91,2.05,1.92,2.33,3,.27,1.1.4,2.38.4,3.83v93.86c0,1.65-.6,3.02-1.78,4.12-1.17,1.08-2.65,1.96-4.37,2.6-1.74.64-3.7,1.08-5.89,1.37-2.19.27-4.38.51-6.57.68v2.73h58.84v-2.73c-1.83-.37-3.7-.59-5.62-.68-1.92-.09-3.69-.33-5.34-.68Z"/>
        <path class="cls-1" d="M427.44,194.35c-1.47-.46-2.66-1.14-3.57-2.05-.91-.91-1.37-2.18-1.37-3.83v-65.47c-8.69,17.68-9.53,22.29-13.73,29.85-5.12,9.22-8.01,11.48-8.92,13.14l-.06,21.39c0,3.48-1.69,5.71-5.07,6.72-3.37,1-7.16,1.68-11.35,2.05v2.73h54.46v-2.73c-1.83-.37-3.64-.64-5.47-.83-1.83-.18-3.46-.49-4.92-.95Z"/>
        <path class="cls-1" d="M506.49,194.75c-1.32-.35-2.52-.92-3.49-1.94-1.92-2.02-2.15-5.07-2.23-7.86-.52-17.12.15-34.24.3-51.35.07-8.63.02-17.27-.39-25.89-.37-7.79-.62-15.29-3.48-22.58-2.25-5.73-5.79-11.07-10.81-14.73-5.29-3.85-11.86-5.63-18.38-6.14-17.21-1.35-34.87,6.09-45.93,19.35.23-27.87.45-55.74.68-83.61-13.22,5.03-26.2,10.72-38.87,17.02,2.44,5.49,11.02,5.27,14.35,10.27,1.56,2.35,1.61,5.35,1.61,8.17,0,17.36-.03,34.72-.04,52.07,0,8.74.03,17.48.02,26.21,0,5.13.14,10.09-.98,15.14-2.15,9.66-7.59,18.09-13.12,26.16-5.03,7.34-10.57,15.1-18.25,19.88-8.3,5.17-20.45,6.73-30.01,5.98-10.33-.82-20.51-4.92-27.97-12.11-7.6-7.33-12.06-17.45-14.15-27.8-2.77-13.79-1.55-28.36,3.48-41.49,3.15-8.23,7.9-16.04,14.8-21.52,6.9-5.48,16.15-8.37,24.74-6.39,8.59,1.97,16.03,9.37,16.78,18.15.5,5.79-1.7,11.95.67,17.25,2.48,5.54,9.77,8.01,15.45,5.86s9.4-8.14,9.74-14.2c.34-6.06-2.35-12.03-6.43-16.53-4.08-4.49-9.45-7.64-15.04-10.01-10.7-4.54-22.58-6.43-34.11-4.94-11.98,1.54-23.47,6.75-32.52,14.76-13.57,12-21.26,29.95-22.19,48.04-.87,16.78,3.97,33.99,14.38,47.17,10.42,13.18,26.53,21.99,43.32,22.53,19.17.61,37.55-9.32,50.88-23.11,13.33-13.79,22.29-31.17,30.16-48.66,4.84-10.77,10.32-21.65,18.58-30.24,8.22-8.54,22.67-17,34.88-12.69,6.34,2.24,10.77,8.24,12.83,14.65,2.06,6.41,2.11,13.26,2.14,19.99.1,21.47.2,42.94.3,64.41.01,2.86-.07,5.98-1.92,8.16-1.76,2.05-4.65,2.69-7.35,2.86s-5.48,0-8.02.93c0,.96,0,1.93,0,2.89,18.65,0,37.3,0,55.96,0v-2.3c-3.15-1.47-7.13-.97-10.37-1.82Z"/>
        <path class="cls-1" d="M716.55,194.61c-1.55-.45-2.87-1.13-3.97-2.05-1.1-.91-1.64-2.01-1.64-3.28v-81.55c0-12.04-2.71-21.89-8.07-29.55-5.39-7.67-13.38-11.5-23.96-11.5-4.92,0-9.7,1.01-14.36,3.02-4.65,2.01-8.9,4.61-12.72,7.8-3.83,3.2-7.22,6.66-10.14,10.39-2.91,3.75-5.2,7.25-6.84,10.54h-.82c-1.28-9.66-4.59-17.37-9.96-23.11-5.37-5.75-12.41-8.64-21.13-8.64-4.9,0-9.59.97-14.04,2.88-4.44,1.92-8.59,4.28-12.4,7.12-3.82,2.82-7.19,6.02-10.09,9.57-2.91,3.55-5.28,6.99-7.09,10.25l-.55-.27v-29.56h-1.63l-35.85,12.87v2.18c2.18.92,4.37,1.96,6.57,3.15,2.19,1.19,4.1,2.23,5.74,3.15,1.28.91,2.05,1.74,2.33,2.45.27.74.42,1.83.42,3.28v93.59c0,2.93-1.52,5.02-4.52,6.3-3.02,1.28-6.61,2.1-10.82,2.47v2.73h53.09v-2.73c-1.81-.37-3.55-.59-5.19-.68-1.65-.09-3.15-.33-4.52-.68-1.37-.37-2.51-.97-3.42-1.78-.92-.82-1.56-2.14-1.92-3.97v-89.75c4.74-5.11,9.02-8.95,12.86-11.5,3.83-2.54,8.75-3.83,14.77-3.83,9.48,0,16.11,3.06,19.84,9.17,3.75,6.12,5.62,14.55,5.62,25.31v70.06c0,2.93-1.47,4.79-4.38,5.62-2.91.82-6.84,1.41-11.77,1.77v3.02h53.64v-2.47c-1.64-.18-3.33-.42-5.05-.68-1.74-.27-3.33-.64-4.8-1.1-1.46-.45-2.65-1.13-3.55-2.05-.92-.91-1.37-2.01-1.37-3.28v-88.39c4.4-4.92,8.62-8.98,12.65-12.17,4.04-3.2,9.08-4.8,15.13-4.8,9.54,0,16.19,3.15,19.95,9.45,3.76,6.29,5.63,14.73,5.63,25.31v69.78c0,2.93-1.28,4.79-3.82,5.62-2.56.82-6.3,1.41-11.22,1.77v3.02h53.64v-2.47c-1.65-.18-3.39-.42-5.2-.68-1.83-.27-3.52-.64-5.07-1.1Z"/>
        <path class="cls-1" d="M852.29,103.22c-3.94-8.11-8.95-14.88-15.06-20.26s-12.91-9.44-20.39-12.17c-7.48-2.73-14.86-4.12-22.16-4.12-9.85,0-18.85,1.83-26.96,5.48-8.11,3.64-15.06,8.49-20.79,14.51-5.75,6.02-10.23,12.95-13.41,20.79-3.2,7.85-4.8,15.96-4.8,24.36,0,11.67,2.05,21.85,6.17,30.51,4.1,8.66,9.39,15.78,15.86,21.34,6.48,5.56,13.55,9.62,21.22,12.17,7.65,2.56,15.04,3.83,22.16,3.83,8.58,0,16.73-1.74,24.49-5.2,7.74-3.46,14.55-8.29,20.39-14.51,5.83-6.2,10.48-13.45,13.96-21.76,3.46-8.29,5.19-17.09,5.19-26.4,0-10.95-1.96-20.48-5.87-28.6ZM803.72,194.4c-2.85.97-5.96,1.44-9.32,1.44-.76,0-1.5-.01-2.23-.06-27.05-.68-48.81-28.34-48.81-62.35s20.9-60.55,47.17-62.29c.16-.01.33-.01.48-.03.3-.03.61-.04.91-.04.34,0,.67-.01,1-.01h.3c27.53,0,49.85,27.93,49.85,62.38,0,29.93-16.85,54.93-39.34,60.97Z"/>
        <path class="cls-1" d="M927.94,122.78c-3.46-.91-7.57-1.87-12.31-2.87-4.76-1.01-9.13-1.96-13.14-2.88-5.84-1.46-10.67-3.64-14.51-6.55-3.83-2.93-5.75-7.76-5.75-14.51,0-4.21.73-7.89,2.2-11.09,1.46-3.2,3.33-5.84,5.6-7.94,2.29-2.1,4.93-3.7,7.94-4.79,3.02-1.1,6.06-1.65,9.17-1.65,5.1,0,9.62.92,13.54,2.73,3.92,1.83,7.43,4.43,10.54,7.8,3.11,3.37,5.93,7.39,8.49,12.04,2.56,4.65,5.11,9.72,7.67,15.19l2.19-.55-3.28-33.93c-5.29-2.01-10.86-3.69-16.69-5.05-5.84-1.37-12.59-2.07-20.26-2.07-6.02,0-11.67.88-16.96,2.6-5.29,1.74-9.94,4.25-13.96,7.54-4.01,3.28-7.21,7.21-9.59,11.77-2.36,4.55-3.55,9.66-3.55,15.32,0,8.2,2.13,15.23,6.41,21.06,4.27,5.84,9.85,9.96,16.76,12.32,3.63,1.28,7.71,2.47,12.26,3.55,4.55,1.1,9.26,2.11,14.18,3.02,6.17,1.28,11.04,3.79,14.58,7.52,3.54,3.75,5.32,8.44,5.32,14.09,0,10.4-2.6,18.12-7.77,23.13-5.19,5.02-12.13,7.54-20.85,7.54-5.99,0-11.18-1.32-15.53-3.97-4.37-2.65-8.1-6.02-11.18-10.14-3.09-4.1-5.72-8.56-7.91-13.41-2.19-4.83-4-9.44-5.45-13.82h-2.19v36.13c6.02,2.73,12.59,4.83,19.71,6.29,7.1,1.47,14.67,2.2,22.71,2.2,6.75,0,13.17-.73,19.29-2.2,6.11-1.46,11.53-3.83,16.27-7.1,4.74-3.28,8.53-7.54,11.35-12.74,2.84-5.19,4.25-11.35,4.25-18.46,0-9.32-2.87-17.15-8.62-23.54-5.75-6.38-12.72-10.58-20.94-12.59Z"/>
        <path class="cls-1" d="M1089.4,195.71c-1.83-.27-3.57-.64-5.2-1.1-1.65-.45-3.02-1.13-4.12-2.05-1.08-.91-1.63-2.01-1.63-3.28v-80.72c0-6.02-.51-11.59-1.5-16.71-1-5.1-2.72-9.53-5.19-13.27-2.45-3.73-5.72-6.64-9.81-8.75-4.1-2.1-9.14-3.15-15.13-3.15s-11.87,1.06-17.05,3.15c-5.19,2.11-9.78,4.61-13.78,7.54-4,2.91-7.31,6.02-9.94,9.3-2.65,3.28-4.59,6.2-5.87,8.75l-.55-.28.82-94.96h-2.19l-36.67,16.69v1.65c2.36,1.46,4.79,2.78,7.25,3.97,2.47,1.19,4.41,2.42,5.89,3.69,1.26.92,2.05,1.74,2.32,2.47.28.73.42,1.83.42,3.28v155.43c0,3.48-1.69,5.71-5.07,6.72-3.37,1-7.16,1.68-11.36,2.05v2.73h54.46v-2.73c-1.83-.37-3.66-.64-5.47-.83-1.83-.18-3.46-.49-4.93-.95-1.46-.46-2.65-1.14-3.55-2.05-.91-.91-1.37-2.18-1.37-3.83v-84.02c0-1.46.31-3.05.97-4.79.62-1.72,1.13-2.87,1.5-3.42,2.73-4.01,6.38-7.21,10.94-9.57,4.56-2.38,10.12-3.57,16.69-3.57,5.11,0,9.3.92,12.59,2.73,3.29,1.83,5.89,4.38,7.8,7.67,1.92,3.28,3.24,7.21,3.97,11.77.73,4.56,1.1,9.48,1.1,14.77v68.41c0,2.93-1.65,4.79-4.93,5.62-3.28.82-7.39,1.41-12.31,1.77v3.02h56.09v-2.47c-1.64-.18-3.37-.42-5.19-.68Z"/>
      </g>
      <g>
        <path class="cls-1" d="M800.25,70.68c26.42,35.93,25.86,89.44.03,125.51,0,0-1.32-.68-1.32-.68,3.36-10.36,6.26-20.58,8.23-30.91,3.89-20.68,3.87-41.66.04-62.35-1.9-10.34-4.58-20.67-8.24-30.8l1.27-.77h0Z"/>
        <path class="cls-1" d="M786.96,71.45c-10.7,29.89-14.16,61.95-8.2,93.15,1.97,10.33,4.87,20.55,8.23,30.91l-1.32.68c-22.83-31.75-25.56-76.31-8.66-111.35,2.48-4.97,5.16-9.81,8.69-14.16l1.27.77h0Z"/>
        <path class="cls-1" d="M730.96,142.44c29.89,10.7,61.95,14.16,93.15,8.2,10.33-1.97,20.55-4.87,30.91-8.23l.68,1.32c-31.75,22.83-76.31,25.56-111.35,8.66-4.97-2.48-9.81-5.16-14.15-8.69l.77-1.27h0Z"/>
        <path class="cls-1" d="M730.19,123.2c35.93-26.42,89.44-25.86,125.51-.03,0,0-.68,1.32-.68,1.32-10.36-3.36-20.58-6.26-30.91-8.23-20.68-3.89-41.66-3.87-62.36-.04-10.34,1.9-20.67,4.58-30.8,8.24l-.77-1.27h0Z"/>
      </g>
    </g>
  </g>
</svg>