<svg width="469" height="160" viewBox="0 0 469 160" fill="none" xmlns="http://www.w3.org/2000/svg">
<g clip-path="url(#clip0_86_4)">
<path d="M258.294 64.0512C270.134 47.8788 276.66 26.6402 276.66 4.24463H244.747C244.747 34.2117 228.159 59.5274 208.532 59.5274C188.905 59.5274 172.318 34.2117 172.318 4.24463H140.404C140.404 26.6402 146.923 47.8788 158.771 64.0512C167.858 76.4656 179.69 85.0983 192.575 89.0397V155.708H224.489V89.0397C237.374 85.1063 249.207 76.4656 258.302 64.0512H258.294Z" fill="white"/>
<path d="M136.256 4.24463H104.342C104.342 85.952 78.9548 128.086 68.1281 128.086C57.3013 128.086 31.9138 85.952 31.9138 4.24463H0C0 81.6437 23.4008 160 68.1281 160C112.855 160 136.256 81.6437 136.256 4.24463Z" fill="white"/>
<path d="M334.753 0C290.026 0 266.625 78.3564 266.625 155.755H298.539C298.539 74.0481 323.926 31.9138 334.753 31.9138C345.58 31.9138 370.967 74.0481 370.967 155.755H402.881C402.881 78.3564 379.48 0 334.753 0Z" fill="white"/>
<path d="M444.687 110.573V4.57959H412.773V110.573C412.773 135.458 433.015 155.7 457.9 155.7H468.383V123.786H457.9C450.615 123.786 444.687 117.858 444.687 110.573Z" fill="white"/>
</g>
<defs>
<clipPath id="clip0_86_4">
<rect width="468.375" height="160" fill="white"/>
</clipPath>
</defs>
</svg>
