<svg width="718" height="300" viewBox="0 0 718 300" fill="none" xmlns="http://www.w3.org/2000/svg">
<path d="M8.05679 216.647H31.5863C46.9674 216.647 54.9326 224.795 54.9326 236.972C54.9326 249.24 46.9674 257.388 31.5863 257.388H19.0433V281.833H8.05679V216.647ZM19.0433 225.894V248.141H30.3045C39.5515 248.141 43.6715 243.93 43.6715 236.972C43.6715 230.105 39.5515 225.894 30.3045 225.894H19.0433ZM87.1577 234.683C88.3479 234.683 89.8127 234.866 91.0029 235.141V244.388C89.7212 244.113 88.531 244.021 87.3408 244.021C79.0093 244.021 74.4316 249.331 74.4316 259.036V281.833H63.9944V235.324H73.6992V242.19H73.8823C76.9951 237.155 81.3897 234.683 87.1577 234.683ZM116.851 233.95C130.951 233.95 139.74 243.472 139.74 258.578C139.74 273.685 130.951 283.207 116.851 283.207C102.752 283.207 93.8712 273.685 93.8712 258.578C93.8712 243.472 102.752 233.95 116.851 233.95ZM116.851 242.19C109.435 242.19 104.858 248.508 104.858 258.578C104.858 268.649 109.435 274.967 116.851 274.967C124.267 274.967 128.845 268.649 128.845 258.578C128.845 248.508 124.267 242.19 116.851 242.19ZM160.719 226.626H150.282V216.647H160.719V226.626ZM160.719 235.324V283.664C160.719 294.834 154.677 299.229 146.071 299.229C144.148 299.229 142.409 298.954 140.761 298.588V290.806C141.585 290.989 142.409 291.08 143.324 291.08C147.81 291.08 150.282 288.975 150.282 282.291V235.324H160.719ZM193.374 275.516C199.325 275.516 203.171 272.312 204.086 267.825H214.798C213.059 276.157 205.551 283.207 193.374 283.207C179.183 283.207 170.852 273.044 170.852 258.029C170.852 244.296 179.092 233.95 193.191 233.95C203.812 233.95 211.502 240.084 214.066 249.789C214.981 252.719 215.347 256.198 215.347 260.684H181.198C181.564 271.213 186.874 275.516 193.374 275.516ZM193.191 241.641C186.874 241.641 182.296 245.761 181.381 253.818H204.91C204.178 245.669 199.417 241.641 193.191 241.641ZM245.77 233.95C257.672 233.95 265.82 241.549 266.736 252.17H255.841C255.383 246.127 251.446 242.19 245.77 242.19C238.446 242.19 234.143 248.416 234.143 258.578C234.143 268.741 238.446 274.967 245.77 274.967C251.446 274.967 255.292 270.481 255.749 264.163H266.736C265.82 275.425 257.764 283.207 245.77 283.207C232.037 283.207 223.156 273.685 223.156 258.578C223.156 243.472 232.037 233.95 245.77 233.95ZM295.196 273.868C296.386 273.868 297.668 273.685 298.4 273.41V281.559C296.844 282.016 294.463 282.383 292.541 282.383C282.744 282.383 278.441 278.263 278.441 268.1V243.289H270.659V235.324H278.441V223.696H288.878V235.324H297.942V243.289H288.878V266.544C288.878 271.762 290.618 273.868 295.196 273.868ZM348.969 215.273C364.808 215.273 372.956 222.689 372.956 236.697H361.878C361.878 228.457 357.209 224.246 348.786 224.246C341.736 224.246 337.342 227.633 337.342 232.943C337.342 238.894 341.828 240.725 352.265 243.289C364.533 246.31 374.787 249.515 374.787 263.248C374.787 275.333 365.083 283.207 350.434 283.207C334.686 283.207 325.073 275.241 325.073 260.318H336.334C336.334 269.657 341.461 274.143 350.525 274.143C358.674 274.143 363.435 270.389 363.435 264.255C363.435 257.663 358.674 256.198 348.694 253.726C336.334 250.613 326.08 247.592 326.08 233.95C326.08 222.872 335.144 215.273 348.969 215.273ZM405.194 233.95C419.293 233.95 428.083 243.472 428.083 258.578C428.083 273.685 419.293 283.207 405.194 283.207C391.095 283.207 382.214 273.685 382.214 258.578C382.214 243.472 391.095 233.95 405.194 233.95ZM405.194 242.19C397.778 242.19 393.2 248.508 393.2 258.578C393.2 268.649 397.778 274.967 405.194 274.967C412.61 274.967 417.188 268.649 417.188 258.578C417.188 248.508 412.61 242.19 405.194 242.19ZM448.696 281.833H438.259V216.647H448.696V281.833ZM478.521 282.932C467.993 282.932 461.584 276.523 461.584 263.797V235.324H472.021V262.882C472.021 271.213 475.592 274.509 481.451 274.509C487.402 274.509 492.071 270.023 492.071 261.142V235.324H502.509V281.833H492.621V275.791H492.438C489.508 280.002 484.655 282.932 478.521 282.932ZM534.543 273.868C535.733 273.868 537.015 273.685 537.747 273.41V281.559C536.191 282.016 533.81 282.383 531.888 282.383C522.091 282.383 517.788 278.263 517.788 268.1V243.289H510.006V235.324H517.788V223.696H528.225V235.324H537.289V243.289H528.225V266.544C528.225 271.762 529.965 273.868 534.543 273.868ZM557.327 226.626H546.89V216.647H557.327V226.626ZM557.327 281.833H546.89V235.324H557.327V281.833ZM590.449 233.95C604.548 233.95 613.337 243.472 613.337 258.578C613.337 273.685 604.548 283.207 590.449 283.207C576.349 283.207 567.469 273.685 567.469 258.578C567.469 243.472 576.349 233.95 590.449 233.95ZM590.449 242.19C583.033 242.19 578.455 248.508 578.455 258.578C578.455 268.649 583.033 274.967 590.449 274.967C597.865 274.967 602.442 268.649 602.442 258.578C602.442 248.508 597.865 242.19 590.449 242.19ZM647.501 234.225C658.029 234.225 664.438 240.634 664.438 253.36V281.833H654.001V254.275C654.001 245.944 650.43 242.648 644.571 242.648C638.62 242.648 633.951 247.134 633.951 256.015V281.833H623.513V235.324H633.401V241.366H633.584C636.514 237.155 641.367 234.225 647.501 234.225ZM693.359 233.95C705.17 233.95 712.128 239.444 712.22 249.789H702.149C702.149 244.204 698.853 241.549 693.268 241.549C688.415 241.549 685.577 243.655 685.577 247.043C685.577 251.071 688.782 251.895 696.106 253.726C704.621 255.923 713.685 257.938 713.685 269.016C713.685 277.439 706.177 283.207 694.183 283.207C681.732 283.207 674.133 277.622 674.041 266.544H684.662C684.662 272.22 688.141 275.425 694.367 275.425C699.677 275.425 702.79 273.136 702.79 269.657C702.79 264.896 699.127 263.98 691.071 261.966C683.288 260.043 675.14 258.304 675.14 247.867C675.14 239.627 682.464 233.95 693.359 233.95Z" fill="#FFF7EE"/>
<g clip-path="url(#clip0_751_35)">
<path d="M674.144 -0.000244141V144.969C648.508 125.723 609.12 109.321 560.498 97.0878V-0.000244141H526.992V89.6464C511.331 86.6076 494.968 83.9972 477.942 81.7765V-0.000244141H439.177L403.061 75.3871L397.646 86.7244L366.166 152.411L334.414 86.14L328.999 74.8027L293.117 -0.000244141H253.027V80.2181C226.573 83.218 201.522 87.2699 178.263 92.2567L134.472 0.0387157H99.3306L9.87891 188.371H56.6696C62.9032 159.229 100.188 133.243 155.628 114.698L190.068 188.371H223.924L184.886 106.165C205.847 100.711 228.638 96.2306 253.066 92.8801V188.332H284.195V48.5048L297.675 76.2832L303.168 87.6595L351.946 188.293H378.828L426.593 88.6335L432.125 77.1014L446.346 47.4529V188.254H477.981V94.7112C495.24 97.4384 511.603 100.711 527.031 104.49V188.215H560.537V114.035C617.029 132.619 654.586 158.839 660.858 188.293H707.649V-0.000244141H674.144ZM72.0588 127.788L116.902 31.9079L148.459 99.3864C118.85 107.334 93.136 116.957 72.0588 127.788Z" fill="#FFF7EE"/>
<path d="M359.115 85.8277C370.53 85.8277 381.984 86.0615 392.971 86.4901L398.231 75.2696C385.257 74.8411 372.283 74.3735 359.115 74.3735C350.544 74.3735 342.206 74.6073 333.83 74.8021L339.323 86.2173C345.908 85.7888 352.492 85.7888 359.115 85.7888V85.8277Z" fill="#FFF7EE"/>
</g>
<defs>
<clipPath id="clip0_751_35">
<rect width="697.731" height="188.371" fill="white" transform="translate(9.87891 -0.000244141)"/>
</clipPath>
</defs>
</svg>
